:FULLY-SPECIFIED
:FORCE-ALL-JOINTS-BE-3DOF
:DEGREES
951
root 1.28341 15.3272 32.6993 6.05834 -5.22737 5.10758
lfemur 8.50542 0.130921 4.15025
ltibia -0.489081 0 0
lfoot -29.4323 -19.0149 -0.156139
ltoes -30.3094 0 0
rfemur -31.542 -12.9015 -8.4002
rtibia 47.7699 -0 0
rfoot -18.8993 3.67266 -0.130824
rtoes -45.8899 0 0
lowerback -2.53715 -0.675038 -0.199992
upperback -1.33345 -0.896527 -7.16786
thorax -0.0842627 -0.477335 -7.38583
lowerneck -6.38204 1.11214 4.71964
upperneck 1.17701 0.993972 4.00376
head 1.44699 0.602623 0.493776
lclavicle -6.16232e-015 -1.11319e-014 0
lhumerus -58.4355 -43.5297 112.007
lradius 55.4512 -0 0
lwrist 24.6405 0 0
lhand 40.8997 25.3554 0.00726503
lfingers 7.12502 -0 0
lthumb 63.1451 35.4163 0.0173006
rclavicle -6.16232e-015 -1.11319e-014 0
rhumerus 0.901565 -0.45186 -1.23913
rradius 48.5898 -0 0
rwrist -13.019 0 0
rhand -14.209 -36.7789 3.9574
rfingers 7.12502 -0 0
rthumb 11.6885 -64.2728 4.56443
952
root 1.25919 15.3121 32.6947 6.07444 -5.25536 5.01245
lfemur 8.54346 0.479115 4.2587
ltibia -0.40507 0 0
lfoot -29.4447 -18.2444 -0.137206
ltoes -30.6216 0 0
rfemur -31.8429 -13.3294 -8.10896
rtibia 48.247 -0 0
rfoot -19.3811 4.00278 -0.129125
rtoes -45.3057 0 0
lowerback -2.41988 -0.6829 -0.107077
upperback -1.31046 -0.911536 -7.06044
thorax -0.125297 -0.486024 -7.32205
lowerneck -6.33436 1.13147 4.84225
upperneck 1.08095 1.01892 3.96435
head 1.40874 0.611606 0.46014
lclavicle -6.16232e-015 -1.11319e-014 0
lhumerus -58.4893 -43.6209 112.259
lradius 55.3925 -0 0
lwrist 24.5067 0 0
lhand 40.7101 25.0588 0.0105418
lfingers 7.12502 -0 0
lthumb 62.9871 35.3171 0.0166772
rclavicle -6.16232e-015 -1.11319e-014 0
rhumerus 1.44227 -3.48576 -0.900744
rradius 46.2368 -0 0
rwrist -12.9058 0 0
rhand -16.3525 -38.1562 3.67552
rfingers 7.12502 -0 0
rthumb 9.63104 -65.9436 4.23977
953
root 1.23497 15.297 32.69 6.08834 -5.27811 4.91922
lfemur 8.57769 0.819786 4.36306
ltibia -0.318021 0 0
lfoot -29.4555 -17.4918 -0.118409
ltoes -30.9221 0 0
rfemur -32.1364 -13.7437 -7.82204
rtibia 48.7144 -0 0
rfoot -19.8464 4.31969 -0.125357
rtoes -44.7303 0 0
lowerback -2.30489 -0.690632 -0.0171238
upperback -1.28743 -0.925994 -6.9549
thorax -0.164932 -0.494331 -7.25862
lowerneck -6.28892 1.14922 4.96091
upperneck 0.988825 1.04178 3.92589
head 1.37218 0.619692 0.427443
lclavicle -6.16232e-015 -1.11319e-014 0
lhumerus -58.5407 -43.7105 112.505
lradius 55.3363 -0 0
lwrist 24.3769 0 0
lhand 40.5224 24.7709 0.0128605
lfingers 7.12502 -0 0
lthumb 62.8306 35.224 0.0157286
rclavicle -6.16232e-015 -1.11319e-014 0
rhumerus 1.94814 -6.43203 -0.607659
rradius 43.9545 -0 0
rwrist -12.7942 0 0
rhand -18.4262 -39.4774 3.35209
rfingers 7.12502 -0 0
rthumb 7.64386 -67.5488 3.86668
954
root 1.21075 15.2819 32.6854 6.10025 -5.29724 4.82873
lfemur 8.60957 1.14851 4.46345
ltibia -0.231583 0 0
lfoot -29.4658 -16.7631 -0.100052
ltoes -31.2114 0 0
rfemur -32.4205 -14.1414 -7.54231
rtibia 49.1663 -0 0
rfoot -20.2938 4.62238 -0.119506
rtoes -44.1728 0 0
lowerback -2.19335 -0.69795 0.069498
upperback -1.2646 -0.939527 -6.85223
thorax -0.20277 -0.502056 -7.19642
lowerneck -6.24604 1.16574 5.07524
upperneck 0.901108 1.06298 3.88854
head 1.33746 0.627122 0.395831
lclavicle -6.16232e-015 -1.11319e-014 0
lhumerus -58.5899 -43.7981 112.744
lradius 55.2825 -0 0
lwrist 24.253 0 0
lhand 40.3383 24.4942 0.0142247
lfingers 7.12502 -0 0
lthumb 62.6771 35.138 0.0144868
rclavicle -6.16232e-015 -1.11319e-014 0
rhumerus 2.42206 -9.2733 -0.352951
rradius 41.754 -0 0
rwrist -12.6849 0 0
rhand -20.4176 -40.7344 2.99458
rfingers 7.12502 -0 0
rthumb 5.73926 -69.0785 3.4539
955
root 1.18653 15.2668 32.6807 6.11036 -5.31438 4.74177
lfemur 8.64059 1.46084 4.56001
ltibia -0.149406 0 0
lfoot -29.4762 -16.0644 -0.0824174
ltoes -31.4898 0 0
rfemur -32.6926 -14.5199 -7.2727
rtibia 49.5967 -0 0
rfoot -20.7221 4.90987 -0.111574
rtoes -43.642 0 0
lowerback -2.08647 -0.704568 0.152419
upperback -1.24223 -0.95176 -6.75344
thorax -0.238414 -0.509004 -7.13632
lowerneck -6.20605 1.1814 5.18487
upperneck 0.81828 1.08296 3.85247
head 1.30479 0.634138 0.365453
lclavicle -6.16232e-015 -1.11319e-014 0
lhumerus -58.6369 -43.8836 112.974
lradius 55.2311 -0 0
lwrist 24.1366 0 0
lhand 40.1595 24.2313 0.01467
lfingers 7.12502 -0 0
lthumb 62.5281 35.0602 0.0129925
rclavicle -6.16232e-015 -1.11319e-014 0
rhumerus 2.86602 -11.9923 -0.129903
rradius 39.6465 -0 0
rwrist -12.5791 0 0
rhand -22.3143 -41.9199 2.61132
rfingers 7.12502 -0 0
rthumb 3.92886 -70.5235 3.01115
956
root 1.16231 15.2516 32.676 6.11888 -5.33117 4.65915
lfemur 8.6722 1.75235 4.65288
ltibia -0.075138 0 0
lfoot -29.4877 -15.402 -0.0657709
ltoes -31.7578 0 0
rfemur -32.9502 -14.8763 -7.01619
rtibia 49.9999 -0 0
rfoot -21.1297 5.18116 -0.10158
rtoes -43.147 0 0
lowerback -1.98541 -0.710197 0.231272
upperback -1.22055 -0.962316 -6.65952
thorax -0.271465 -0.51498 -7.07919
lowerneck -6.16925 1.19654 5.28939
upperneck 0.740817 1.10219 3.81782
head 1.27433 0.640983 0.336454
lclavicle -6.16232e-015 -1.11319e-014 0
lhumerus -58.6819 -43.9667 113.194
lradius 55.1821 -0 0
lwrist 24.0296 0 0
lhand 39.9879 23.985 0.0142608
lfingers 7.12502 -0 0
lthumb 62.385 34.9916 0.0112938
rclavicle -6.16232e-015 -1.11319e-014 0
rhumerus 3.28112 -14.572 0.0681166
rradius 37.6432 -0 0
rwrist -12.4777 0 0
rhand -24.1046 -43.0272 2.21126
rfingers 7.12502 -0 0
rthumb 2.22363 -71.8753 2.54891
957
root 1.13809 15.2365 32.6714 6.12601 -5.34923 4.5817
lfemur 8.70585 2.01859 4.74221
ltibia -0.0124295 0 0
lfoot -29.5012 -14.7818 -0.0503611
ltoes -32.0157 0 0
rfemur -33.1908 -15.2079 -6.77585
rtibia 50.3699 -0 0
rfoot -21.5154 5.43527 -0.0895488
rtoes -42.6966 0 0
lowerback -1.89139 -0.714543 0.305689
upperback -1.19982 -0.970815 -6.57147
thorax -0.301527 -0.519792 -7.02592
lowerneck -6.13597 1.21152 5.38844
upperneck 0.669197 1.12109 3.78478
head 1.24627 0.647899 0.30898
lclavicle -6.16232e-015 -1.11319e-014 0
lhumerus -58.7248 -44.0471 113.404
lradius 55.1355 -0 0
lwrist 23.9338 0 0
lhand 39.825 23.7578 0.0130865
lfingers 7.12502 -0 0
lthumb 62.2492 34.933 0.00944463
rclavicle -6.16232e-015 -1.11319e-014 0
rhumerus 3.66765 -16.9954 0.247757
rradius 35.7553 -0 0
rwrist -12.3816 0 0
rhand -25.7772 -44.0501 1.80385
rfingers 7.12502 -0 0
rthumb 0.633963 -73.1263 2.07826
958
root 1.11387 15.2214 32.6667 6.13198 -5.37019 4.5102
lfemur 8.74299 2.25512 4.82816
ltibia 0.0350705 -0 0
lfoot -29.5176 -14.2101 -0.0364243
ltoes -32.2641 0 0
rfemur -33.4117 -15.5121 -6.55478
rtibia 50.7007 -0 0
rfoot -21.8778 5.67121 -0.0755145
rtoes -42.2998 0 0
lowerback -1.80557 -0.717309 0.375305
upperback -1.18027 -0.976878 -6.49028
thorax -0.328199 -0.523248 -6.97737
lowerneck -6.10652 1.22671 5.48163
upperneck 0.603894 1.14011 3.75348
head 1.2208 0.65513 0.283176
lclavicle -6.16232e-015 -1.11319e-014 0
lhumerus -58.7658 -44.1246 113.601
lradius 55.0914 -0 0
lwrist 23.851 0 0
lhand 39.6726 23.5525 0.0112573
lfingers 7.12502 -0 0
lthumb 62.1222 34.8856 0.00750321
rclavicle -6.16232e-015 -1.11319e-014 0
rhumerus 4.02508 -19.2455 0.415753
rradius 33.9941 -0 0
rwrist -12.2918 0 0
rhand -27.3211 -44.9833 1.39888
rfingers 7.12502 -0 0
rthumb -0.830256 -74.2694 1.6106
959
root 1.08966 15.2063 32.6621 6.137 -5.39568 4.44548
lfemur 8.78505 2.45747 4.9109
ltibia 0.0637128 -0 0
lfoot -29.5377 -13.6929 -0.0241896
ltoes -32.5032 0 0
rfemur -33.6104 -15.7863 -6.35611
rtibia 50.9866 -0 0
rfoot -22.2155 5.88798 -0.0595125
rtoes -41.9656 0 0
lowerback -1.72915 -0.718197 0.439754
upperback -1.16215 -0.980125 -6.41694
thorax -0.351083 -0.525158 -6.93443
lowerneck -6.08122 1.24246 5.56857
upperneck 0.545386 1.15969 3.72408
head 1.19808 0.662917 0.25919
lclavicle -6.16232e-015 -1.11319e-014 0
lhumerus -58.8049 -44.199 113.783
lradius 55.0496 -0 0
lwrist 23.7829 0 0
lhand 39.5325 23.3715 0.00889871
lfingers 7.12502 -0 0
lthumb 62.0054 34.8503 0.0055297
rclavicle -6.16232e-015 -1.11319e-014 0
rhumerus 4.35217 -21.3056 0.578971
rradius 32.3707 -0 0
rwrist -12.2092 0 0
rhand -28.7256 -45.8217 1.00624
rfingers 7.12502 -0 0
rthumb -2.15955 -75.2982 1.15754
960
root 1.06544 15.1911 32.6574 6.14129 -5.42731 4.38833
lfemur 8.83347 2.62119 4.99057
ltibia 0.069848 -0 0
lfoot -29.5624 -13.2364 -0.0138841
ltoes -32.7335 0 0
rfemur -33.7842 -16.0277 -6.183
rtibia 51.2217 -0 0
rfoot -22.5272 6.08461 -0.0415765
rtoes -41.7029 0 0
lowerback -1.66332 -0.716906 0.498669
upperback -1.14571 -0.980174 -6.35245
thorax -0.369781 -0.52533 -6.89796
lowerneck -6.06037 1.25912 5.64889
upperneck 0.494147 1.18029 3.69675
head 1.17831 0.671504 0.237165
lclavicle -6.16232e-015 -1.11319e-014 0
lhumerus -58.8421 -44.27 113.951
lradius 55.0102 -0 0
lwrist 23.7314 0 0
lhand 39.4062 23.2177 0.00614566
lfingers 7.12502 -0 0
lthumb 61.9002 34.8281 0.00358408
rclavicle -6.16232e-015 -1.11319e-014 0
rhumerus 4.64703 -23.1589 0.744394
rradius 30.8962 -0 0
rwrist -12.1349 0 0
rhand -29.9802 -46.5608 0.635825
rfingers 7.12502 -0 0
rthumb -3.34476 -76.2066 0.730613
961
root 1.04122 15.176 32.6528 6.14506 -5.46673 4.33957
lfemur 8.88967 2.74183 5.06733
ltibia 0.0498268 -0 0
lfoot -29.5927 -12.8467 -0.00573945
ltoes -32.9554 0 0
rfemur -33.9303 -16.2337 -6.0386
rtibia 51.4 -0 0
rfoot -22.8116 6.26011 -0.0217337
rtoes -41.5206 0 0
lowerback -1.60925 -0.713137 0.551685
upperback -1.13118 -0.976642 -6.29781
thorax -0.383894 -0.523573 -6.86885
lowerneck -6.0443 1.27706 5.72219
upperneck 0.450652 1.20234 3.67163
head 1.16166 0.681134 0.217249
lclavicle -6.16232e-015 -1.11319e-014 0
lhumerus -58.8774 -44.3374 114.102
lradius 54.9731 -0 0
lwrist 23.6982 0 0
lhand 39.2956 23.0935 0.00313539
lfingers 7.12502 -0 0
lthumb 61.8082 34.82 0.00172361
rclavicle -6.16232e-015 -1.11319e-014 0
rhumerus 4.90729 -24.7887 0.919072
rradius 29.582 -0 0
rwrist -12.0698 0 0
rhand -31.0745 -47.1961 0.297308
rfingers 7.12502 -0 0
rthumb -4.37685 -76.9888 0.341139
962
root 1.017 15.1609 32.6481 6.14853 -5.51555 364.3
lfemur 8.95506 2.81491 5.14129
ltibia -3.18055e-014 0 0
lfoot -29.6294 -12.5299 0
ltoes -33.1694 0 0
rfemur -34.0462 -16.4017 -5.92604
rtibia 51.5156 0 0
rfoot -23.0672 6.4135 0
rtoes -41.4277 0 0
lowerback -1.56815 -0.70659 0.598434
upperback -1.11881 -0.969149 -6.25402
thorax -0.393024 -0.519697 -6.84796
lowerneck -6.03331 1.29664 5.78811
upperneck 0.415377 1.22629 3.64889
head 1.14832 0.692048 0.199586
lclavicle -6.16232e-015 -1.11319e-014 0
lhumerus -58.911 -44.401 114.235
lradius 54.9384 0 0
lwrist 23.6852 0 0
lhand 39.2023 23.0017 0
lfingers 7.12502 0 0
lthumb 61.7307 34.827 0
rclavicle -6.16232e-015 -1.11319e-014 0
rhumerus 5.1303 -26.1783 1.11
rradius 28.4392 0 0
rwrist -12.0148 0 0
rhand -31.9981 -47.7236 0
rfingers 7.12502 0 0
rthumb -5.24688 -797.639 0
963
root 1.02072 15.1609 32.6418 6.14926 -5.56394 4.26704
lfemur 9.02048 2.85672 5.20927
ltibia -0.0617602 0 0
lfoot -29.6684 -12.2668 0.00424665
ltoes -33.3681 0 0
rfemur -34.1363 -16.5385 -5.83724
rtibia 51.5899 -0 0
rfoot -23.2924 6.54188 0.0214853
rtoes -41.3893 0 0
lowerback -1.53563 -0.698225 0.63934
upperback -1.10732 -0.958971 -6.2172
thorax -0.398186 -0.51437 -6.83134
lowerneck -6.02732 1.31569 5.84624
upperneck 0.388329 1.24932 3.62818
head 1.13839 0.702809 0.183975
lclavicle 9.34288e-015 3.18055e-014 0
lhumerus -58.9404 -44.4614 114.353
lradius 54.907 -0 0
lwrist 23.687 0 0
lhand 39.1186 22.9349 -0.00306063
lfingers 7.12502 -0 0
lthumb 61.6612 34.8489 -0.00163791
rclavicle 9.34288e-015 3.18055e-014 0
rhumerus 5.31671 -27.3579 1.29352
rradius 27.4515 -0 0
rwrist -11.9663 0 0
rhand -32.7774 -48.1552 -0.259256
rfingers 7.12502 -0 0
rthumb -5.9801 -78.1738 -0.296984
